<?xml version="1.0" encoding="utf-8"?>
<!-- Generator: Adobe Illustrator 16.0.0, SVG Export Plug-In . SVG Version: 6.00 Build 0)  -->
<!DOCTYPE svg PUBLIC "-//W3C//DTD SVG 1.1//EN" "http://www.w3.org/Graphics/SVG/1.1/DTD/svg11.dtd">
<svg version="1.1" xmlns="http://www.w3.org/2000/svg" xmlns:xlink="http://www.w3.org/1999/xlink" x="0px" y="0px"
	 width="304.484px" height="172.515px" viewBox="0 0 304.484 172.515" enable-background="new 0 0 304.484 172.515"
	 xml:space="preserve">
<g id="otros" display="none">
	<text transform="matrix(1 0 0 1 -491.0967 168.0625)" display="inline"><tspan x="0" y="0" font-family="'Gotham-Medium'" font-size="62.0722">LORD</tspan><tspan x="0" y="43.815" font-family="'Gotham-Light'" font-size="43.8157">EVENTS</tspan></text>
	<g display="inline">
		<g>
			<defs>
				<polygon id="SVGID_1_" points="-305.238,-41.651 -337.532,2.006 -363.245,2.006 -375.21,-59.592 -398.533,-59.592 
					-421.855,-59.592 -433.82,2.006 -459.533,2.006 -491.827,-41.651 -522.326,-22.518 -487.174,80.347 -398.533,80.347 
					-313.065,80.347 -274.74,-22.518 				"/>
			</defs>
			<clipPath id="SVGID_2_">
				<use xlink:href="#SVGID_1_"  overflow="visible"/>
			</clipPath>
			<g clip-path="url(#SVGID_2_)">
				<polygon fill="#17083D" points="-527.599,119.313 -533.099,115.556 -538.598,119.313 				"/>
				<polygon fill="#14073E" points="-536.573,119.313 -531.582,115.903 -544.552,115.903 -544.552,119.313 				"/>
				<polygon fill="#15083E" points="-544.552,107.731 -544.552,116.592 -531.582,116.592 				"/>
				<polygon fill="#1D0839" points="-436.568,119.313 -442.067,115.556 -447.566,119.313 				"/>
				<polygon fill="#19083D" points="-445.542,119.313 -440.55,115.903 -534.614,115.903 -529.625,119.313 				"/>
				<polygon fill="#17073E" points="-440.55,116.592 -534.614,116.592 -487.582,84.457 				"/>
				<polygon fill="#16083E" points="-544.552,84.804 -544.552,109.114 -533.099,116.938 -486.065,84.804 				"/>
				<polygon fill="#1A0E45" points="-544.552,85.494 -486.065,85.494 -533.099,53.357 -544.552,61.184 				"/>
				<polygon fill="#281946" points="-544.552,53.7 -544.552,62.564 -531.582,53.7 				"/>
				<polygon fill="#2F1F4D" points="-544.552,45.532 -544.552,54.394 -531.582,54.394 				"/>
				<polygon fill="#2F0B3F" points="-345.537,119.313 -351.035,115.556 -356.534,119.313 				"/>
				<polygon fill="#2F0A3B" points="-354.509,119.313 -349.517,115.903 -443.584,115.903 -438.592,119.313 				"/>
				<polygon fill="#310B3E" points="-349.517,116.592 -443.584,116.592 -396.551,84.457 				"/>
				<polygon fill="#290B41" points="-442.067,116.938 -489.1,84.804 -395.032,84.804 				"/>
				<polygon fill="#3B0E46" points="-395.032,85.494 -489.1,85.494 -442.067,53.357 				"/>
				<polygon fill="#2A1149" points="-487.582,85.841 -534.614,53.7 -440.55,53.7 				"/>
				<polygon fill="#3F2052" points="-440.55,54.394 -534.614,54.394 -487.582,22.259 				"/>
				<polygon fill="#2E2156" points="-544.552,22.603 -544.552,46.914 -533.099,54.741 -486.065,22.603 				"/>
				<polygon fill="#393162" points="-544.552,23.294 -486.065,23.294 -533.099,-8.841 -544.552,-1.014 				"/>
				<polygon fill="#2A255A" points="-544.552,-8.498 -544.552,0.366 -531.582,-8.498 				"/>
				<polygon fill="#25255F" points="-544.552,-16.668 -544.552,-7.806 -531.582,-7.806 				"/>
				<polygon fill="#3F2557" points="-254.504,119.313 -260.001,115.556 -265.501,119.313 				"/>
				<polygon fill="#320F48" points="-263.477,119.313 -258.485,115.903 -352.553,115.903 -347.562,119.313 				"/>
				<polygon fill="#731B49" points="-258.485,116.592 -352.553,116.592 -305.52,84.457 				"/>
				<polygon fill="#4E0D43" points="-351.035,116.938 -398.067,84.804 -304.002,84.804 				"/>
				<polygon fill="#6D1149" points="-304.002,85.494 -398.067,85.494 -351.035,53.357 				"/>
				<polygon fill="#4F0E4A" points="-396.551,85.841 -443.584,53.7 -349.517,53.7 				"/>
				<polygon fill="#732B55" points="-349.517,54.394 -443.584,54.394 -396.551,22.259 				"/>
				<polygon fill="#73375E" points="-442.067,54.741 -489.1,22.603 -395.032,22.603 				"/>
				<polygon fill="#A55B75" points="-395.032,23.294 -489.1,23.294 -442.067,-8.841 				"/>
				<polygon fill="#97637F" points="-487.582,23.638 -534.614,-8.498 -440.55,-8.498 				"/>
				<polygon fill="#C27891" points="-440.55,-7.806 -534.614,-7.806 -487.582,-39.942 				"/>
				<polygon fill="#865381" points="-544.552,-39.597 -544.552,-15.288 -533.099,-7.462 -486.065,-39.597 				"/>
				<polygon fill="#C06A8A" points="-544.552,-38.907 -486.065,-38.907 -533.099,-71.042 -544.552,-63.216 				"/>
				<polygon fill="#8A5588" points="-544.552,-70.695 -544.552,-61.833 -531.582,-70.695 				"/>
				<polygon fill="#392553" points="-253.712,115.903 -261.52,115.903 -256.529,119.313 -253.712,119.313 				"/>
				<polygon fill="#331653" points="-253.712,111.259 -261.52,116.592 -253.712,116.592 				"/>
				<polygon fill="#631750" points="-253.712,84.804 -307.037,84.804 -260.001,116.938 -253.712,112.642 				"/>
				<polygon fill="#7B1D4B" points="-253.712,57.657 -260.001,53.357 -307.037,85.494 -253.712,85.494 				"/>
				<polygon fill="#C93751" points="-305.52,85.841 -352.553,53.7 -258.485,53.7 				"/>
				<polygon fill="#77194E" points="-258.485,54.394 -352.553,54.394 -305.52,22.259 				"/>
				<polygon fill="#944760" points="-351.035,54.741 -398.067,22.603 -304.002,22.603 				"/>
				<polygon fill="#D6917F" points="-304.002,23.294 -398.067,23.294 -351.035,-8.841 				"/>
				<polygon fill="#EBBD9A" points="-396.551,23.638 -443.584,-8.498 -349.517,-8.498 				"/>
				<polygon fill="#E2A49C" points="-349.517,-7.806 -443.584,-7.806 -396.551,-39.942 				"/>
				<polygon fill="#D98797" points="-442.067,-7.462 -489.1,-39.597 -395.032,-39.597 				"/>
				<polygon fill="#EDB3AE" points="-395.032,-38.907 -489.1,-38.907 -442.067,-71.042 				"/>
				<polygon fill="#F1CDBF" points="-487.582,-38.56 -534.614,-70.695 -440.55,-70.695 				"/>
				<polygon fill="#170947" points="-253.712,53.7 -261.52,53.7 -253.712,59.036 				"/>
				<polygon fill="#180843" points="-253.712,49.06 -261.52,54.394 -253.712,54.394 				"/>
				<polygon fill="#1C0A48" points="-253.712,22.603 -307.037,22.603 -260.001,54.741 -253.712,50.442 				"/>
				<polygon fill="#250D4E" points="-253.712,-4.543 -260.001,-8.841 -307.037,23.294 -253.712,23.294 				"/>
				<polygon fill="#62235B" points="-305.52,23.638 -352.553,-8.498 -258.485,-8.498 				"/>
				<polygon fill="#822A66" points="-258.485,-7.806 -352.553,-7.806 -305.52,-39.942 				"/>
				<polygon fill="#CF7B8C" points="-351.035,-7.462 -398.067,-39.597 -304.002,-39.597 				"/>
				<polygon fill="#DE6A92" points="-304.002,-38.907 -398.067,-38.907 -351.035,-71.042 				"/>
				<polygon fill="#ECB0BC" points="-396.551,-38.56 -443.584,-70.695 -349.517,-70.695 				"/>
				<polygon fill="#4E0E4D" points="-253.712,-8.498 -261.52,-8.498 -253.712,-3.163 				"/>
				<polygon fill="#A02B58" points="-253.712,-13.14 -261.52,-7.806 -253.712,-7.806 				"/>
				<polygon fill="#B63869" points="-253.712,-39.597 -307.037,-39.597 -260.001,-7.462 -253.712,-11.76 				"/>
				<polygon fill="#F0807E" points="-253.712,-66.745 -260.001,-71.042 -307.037,-38.907 -253.712,-38.907 				"/>
				<polygon fill="#F090A1" points="-305.52,-38.56 -352.553,-70.695 -258.485,-70.695 				"/>
				<polygon fill="#EFA190" points="-253.712,-70.695 -261.52,-70.695 -253.712,-65.361 				"/>
			</g>
		</g>
		<g>
			<defs>
				<rect id="SVGID_3_" x="-485.847" y="92.396" width="173.43" height="18.538"/>
			</defs>
			<clipPath id="SVGID_4_">
				<use xlink:href="#SVGID_3_"  overflow="visible"/>
			</clipPath>
			<g clip-path="url(#SVGID_4_)">
				<polygon fill="#17083D" points="-527.599,119.313 -533.099,115.556 -538.598,119.313 				"/>
				<polygon fill="#14073E" points="-536.573,119.313 -531.582,115.903 -544.552,115.903 -544.552,119.313 				"/>
				<polygon fill="#15083E" points="-544.552,107.731 -544.552,116.592 -531.582,116.592 				"/>
				<polygon fill="#1D0839" points="-436.568,119.313 -442.067,115.556 -447.566,119.313 				"/>
				<polygon fill="#19083D" points="-445.542,119.313 -440.55,115.903 -534.614,115.903 -529.625,119.313 				"/>
				<polygon fill="#17073E" points="-440.55,116.592 -534.614,116.592 -487.582,84.457 				"/>
				<polygon fill="#16083E" points="-544.552,84.804 -544.552,109.114 -533.099,116.938 -486.065,84.804 				"/>
				<polygon fill="#1A0E45" points="-544.552,85.494 -486.065,85.494 -533.099,53.357 -544.552,61.184 				"/>
				<polygon fill="#281946" points="-544.552,53.7 -544.552,62.564 -531.582,53.7 				"/>
				<polygon fill="#2F1F4D" points="-544.552,45.532 -544.552,54.394 -531.582,54.394 				"/>
				<polygon fill="#2F0B3F" points="-345.537,119.313 -351.035,115.556 -356.534,119.313 				"/>
				<polygon fill="#2F0A3B" points="-354.509,119.313 -349.517,115.903 -443.584,115.903 -438.592,119.313 				"/>
				<polygon fill="#310B3E" points="-349.517,116.592 -443.584,116.592 -396.551,84.457 				"/>
				<polygon fill="#290B41" points="-442.067,116.938 -489.1,84.804 -395.032,84.804 				"/>
				<polygon fill="#3B0E46" points="-395.032,85.494 -489.1,85.494 -442.067,53.357 				"/>
				<polygon fill="#2A1149" points="-487.582,85.841 -534.614,53.7 -440.55,53.7 				"/>
				<polygon fill="#3F2052" points="-440.55,54.394 -534.614,54.394 -487.582,22.259 				"/>
				<polygon fill="#2E2156" points="-544.552,22.603 -544.552,46.914 -533.099,54.741 -486.065,22.603 				"/>
				<polygon fill="#393162" points="-544.552,23.294 -486.065,23.294 -533.099,-8.841 -544.552,-1.014 				"/>
				<polygon fill="#2A255A" points="-544.552,-8.498 -544.552,0.366 -531.582,-8.498 				"/>
				<polygon fill="#25255F" points="-544.552,-16.668 -544.552,-7.806 -531.582,-7.806 				"/>
				<polygon fill="#3F2557" points="-254.504,119.313 -260.001,115.556 -265.501,119.313 				"/>
				<polygon fill="#320F48" points="-263.477,119.313 -258.485,115.903 -352.553,115.903 -347.562,119.313 				"/>
				<polygon fill="#731B49" points="-258.485,116.592 -352.553,116.592 -305.52,84.457 				"/>
				<polygon fill="#4E0D43" points="-351.035,116.938 -398.067,84.804 -304.002,84.804 				"/>
				<polygon fill="#6D1149" points="-304.002,85.494 -398.067,85.494 -351.035,53.357 				"/>
				<polygon fill="#4F0E4A" points="-396.551,85.841 -443.584,53.7 -349.517,53.7 				"/>
				<polygon fill="#732B55" points="-349.517,54.394 -443.584,54.394 -396.551,22.259 				"/>
				<polygon fill="#73375E" points="-442.067,54.741 -489.1,22.603 -395.032,22.603 				"/>
				<polygon fill="#A55B75" points="-395.032,23.294 -489.1,23.294 -442.067,-8.841 				"/>
				<polygon fill="#97637F" points="-487.582,23.638 -534.614,-8.498 -440.55,-8.498 				"/>
				<polygon fill="#C27891" points="-440.55,-7.806 -534.614,-7.806 -487.582,-39.942 				"/>
				<polygon fill="#865381" points="-544.552,-39.597 -544.552,-15.288 -533.099,-7.462 -486.065,-39.597 				"/>
				<polygon fill="#C06A8A" points="-544.552,-38.907 -486.065,-38.907 -533.099,-71.042 -544.552,-63.216 				"/>
				<polygon fill="#8A5588" points="-544.552,-70.695 -544.552,-61.833 -531.582,-70.695 				"/>
				<polygon fill="#392553" points="-253.712,115.903 -261.52,115.903 -256.529,119.313 -253.712,119.313 				"/>
				<polygon fill="#331653" points="-253.712,111.259 -261.52,116.592 -253.712,116.592 				"/>
				<polygon fill="#631750" points="-253.712,84.804 -307.037,84.804 -260.001,116.938 -253.712,112.642 				"/>
				<polygon fill="#7B1D4B" points="-253.712,57.657 -260.001,53.357 -307.037,85.494 -253.712,85.494 				"/>
				<polygon fill="#C93751" points="-305.52,85.841 -352.553,53.7 -258.485,53.7 				"/>
				<polygon fill="#77194E" points="-258.485,54.394 -352.553,54.394 -305.52,22.259 				"/>
				<polygon fill="#944760" points="-351.035,54.741 -398.067,22.603 -304.002,22.603 				"/>
				<polygon fill="#D6917F" points="-304.002,23.294 -398.067,23.294 -351.035,-8.841 				"/>
				<polygon fill="#EBBD9A" points="-396.551,23.638 -443.584,-8.498 -349.517,-8.498 				"/>
				<polygon fill="#E2A49C" points="-349.517,-7.806 -443.584,-7.806 -396.551,-39.942 				"/>
				<polygon fill="#D98797" points="-442.067,-7.462 -489.1,-39.597 -395.032,-39.597 				"/>
				<polygon fill="#EDB3AE" points="-395.032,-38.907 -489.1,-38.907 -442.067,-71.042 				"/>
				<polygon fill="#F1CDBF" points="-487.582,-38.56 -534.614,-70.695 -440.55,-70.695 				"/>
				<polygon fill="#170947" points="-253.712,53.7 -261.52,53.7 -253.712,59.036 				"/>
				<polygon fill="#180843" points="-253.712,49.06 -261.52,54.394 -253.712,54.394 				"/>
				<polygon fill="#1C0A48" points="-253.712,22.603 -307.037,22.603 -260.001,54.741 -253.712,50.442 				"/>
				<polygon fill="#250D4E" points="-253.712,-4.543 -260.001,-8.841 -307.037,23.294 -253.712,23.294 				"/>
				<polygon fill="#62235B" points="-305.52,23.638 -352.553,-8.498 -258.485,-8.498 				"/>
				<polygon fill="#822A66" points="-258.485,-7.806 -352.553,-7.806 -305.52,-39.942 				"/>
				<polygon fill="#CF7B8C" points="-351.035,-7.462 -398.067,-39.597 -304.002,-39.597 				"/>
				<polygon fill="#DE6A92" points="-304.002,-38.907 -398.067,-38.907 -351.035,-71.042 				"/>
				<polygon fill="#ECB0BC" points="-396.551,-38.56 -443.584,-70.695 -349.517,-70.695 				"/>
				<polygon fill="#4E0E4D" points="-253.712,-8.498 -261.52,-8.498 -253.712,-3.163 				"/>
				<polygon fill="#A02B58" points="-253.712,-13.14 -261.52,-7.806 -253.712,-7.806 				"/>
				<polygon fill="#B63869" points="-253.712,-39.597 -307.037,-39.597 -260.001,-7.462 -253.712,-11.76 				"/>
				<polygon fill="#F0807E" points="-253.712,-66.745 -260.001,-71.042 -307.037,-38.907 -253.712,-38.907 				"/>
				<polygon fill="#F090A1" points="-305.52,-38.56 -352.553,-70.695 -258.485,-70.695 				"/>
				<polygon fill="#EFA190" points="-253.712,-70.695 -261.52,-70.695 -253.712,-65.361 				"/>
			</g>
		</g>
	</g>
	<text transform="matrix(1 0 0 1 620.6816 79.3184)" display="inline"><tspan x="0" y="0" fill="#1F9FBB" font-family="'Gotham-Medium'" font-size="62.0722">LORD</tspan><tspan x="0" y="43.815" fill="#643D83" font-family="'Gotham-Light'" font-size="43.8157">EVENTS</tspan></text>
	<linearGradient id="SVGID_5_" gradientUnits="userSpaceOnUse" x1="579.5596" y1="78.5811" x2="842.5596" y2="78.5811">
		<stop  offset="0" style="stop-color:#673881"/>
		<stop  offset="1" style="stop-color:#1DA1BC"/>
	</linearGradient>
	
		<rect x="583.06" y="-4.419" display="inline" fill="none" stroke="url(#SVGID_5_)" stroke-width="7" stroke-miterlimit="10" width="256" height="166"/>
</g>
<g id="Layer_4" display="none">
	<linearGradient id="SVGID_6_" gradientUnits="userSpaceOnUse" x1="434.582" y1="-191.3413" x2="983.5569" y2="360.633">
		<stop  offset="0.2767" style="stop-color:#673881"/>
		<stop  offset="1" style="stop-color:#1DA1BC"/>
	</linearGradient>
	<rect x="447.06" y="-177.419" display="inline" fill="url(#SVGID_6_)" width="504" height="504"/>
</g>
<g id="Layer_1">
	<g>
		<g>
			<g>
				<path d="M122.602,36.685h7.635v36.499h22.843v6.952h-30.478V36.685z"/>
			</g>
			<g>
				<path d="M156.616,58.534V58.41c0-12.229,9.436-22.471,22.781-22.471s22.656,10.118,22.656,22.347v0.124
					c0,12.229-9.436,22.471-22.78,22.471C165.928,80.881,156.616,70.763,156.616,58.534z M194.046,58.534V58.41
					c0-8.442-6.145-15.456-14.772-15.456c-8.629,0-14.649,6.89-14.649,15.332v0.124c0,8.441,6.145,15.456,14.773,15.456
					C188.025,73.866,194.046,66.977,194.046,58.534z"/>
			</g>
			<g>
				<path d="M211.302,36.685h19.366c5.463,0,9.745,1.614,12.539,4.345c2.297,2.359,3.6,5.587,3.6,9.373v0.124
					c0,7.139-4.282,11.422-10.366,13.16l11.732,16.449h-9.001L228.495,64.99h-9.559v15.146h-7.635V36.685z M230.109,58.224
					c5.463,0,8.938-2.855,8.938-7.263v-0.124c0-4.655-3.352-7.2-9.001-7.2h-11.11v14.587H230.109z"/>
			</g>
			<g>
				<path d="M256.18,36.685h16.2c13.656,0,23.092,9.373,23.092,21.602v0.124c0,12.229-9.436,21.726-23.092,21.726h-16.2V36.685z
					 M272.38,73.184c9.125,0,15.084-6.146,15.084-14.649V58.41c0-8.504-5.959-14.773-15.084-14.773h-8.565v29.547H272.38z"/>
			</g>
			<g>
				<path d="M121.572,93.275h21.824v2.104h-19.545v12.051h17.572v2.104h-17.572v12.314h19.764v2.104h-22.043V93.275z"/>
			</g>
			<g>
				<path d="M148.299,93.275h2.542l12.008,28.222L174.9,93.275h2.41l-13.498,30.895h-2.016L148.299,93.275z"/>
			</g>
			<g>
				<path d="M183.79,93.275h21.824v2.104h-19.546v12.051h17.573v2.104h-17.573v12.314h19.765v2.104H183.79V93.275z"/>
			</g>
			<g>
				<path d="M213.146,93.275h2.147l21.167,26.688V93.275h2.19v30.676h-1.709l-21.604-27.258v27.258h-2.191V93.275z"/>
			</g>
			<g>
				<path d="M256.263,95.379h-10.693v-2.104h23.665v2.104h-10.693v28.572h-2.278V95.379z"/>
			</g>
			<g>
				<path d="M273.524,119.481l1.489-1.709c3.375,3.111,6.486,4.558,11,4.558c4.602,0,7.757-2.586,7.757-6.092v-0.088
					c0-3.242-1.709-5.127-8.677-6.529c-7.362-1.49-10.343-3.988-10.343-8.633V100.9c0-4.558,4.163-8.063,9.86-8.063
					c4.47,0,7.406,1.227,10.518,3.725l-1.446,1.797c-2.893-2.498-5.784-3.462-9.159-3.462c-4.514,0-7.493,2.586-7.493,5.784v0.088
					c0,3.243,1.665,5.215,8.939,6.705c7.1,1.446,10.079,3.988,10.079,8.458v0.088c0,4.951-4.25,8.37-10.167,8.37
					C280.974,124.39,277.205,122.768,273.524,119.481z"/>
			</g>
		</g>
		<g>
			<g>
				<path d="M106.897,78.104c8.929-21.506,1.086-46.959-19.004-59.516c-6.94-4.338-14.523-6.688-22.111-7.242v66.758H106.897z"/>
			</g>
			<g>
				<path d="M48.618,93.732V13.182C36.206,16.82,25.22,25.405,18.898,38.095C8.04,59.897,15.337,86.718,35.732,100.032
					c0.807,0.526,1.622,1.024,2.446,1.496c10.75,6.165,17.76,17.107,18.75,29.463c0.147,1.845,0.506,3.706,1.089,5.552
					c3.765,11.912,16.064,19.252,28.329,16.88c14.278-2.761,23.004-16.954,19.329-30.769c-0.456-1.72-1.083-3.349-1.856-4.873
					c-3.808-7.507-4.801-15.983-3.173-24.049H48.618z"/>
			</g>
		</g>
	</g>
</g>
<g id="Layer_2">
</g>
</svg>
