<?xml version="1.0" encoding="utf-8"?>
<!-- Generator: Adobe Illustrator 16.0.0, SVG Export Plug-In . SVG Version: 6.00 Build 0)  -->
<!DOCTYPE svg PUBLIC "-//W3C//DTD SVG 1.1//EN" "http://www.w3.org/Graphics/SVG/1.1/DTD/svg11.dtd">
<svg version="1.1" xmlns="http://www.w3.org/2000/svg" xmlns:xlink="http://www.w3.org/1999/xlink" x="0px" y="0px"
	 width="112.508px" height="162.882px" viewBox="0 0 112.508 162.882" enable-background="new 0 0 112.508 162.882"
	 xml:space="preserve">
<g id="otros" display="none">
	<text transform="matrix(1 0 0 1 -647.8232 -223.2041)" display="inline"><tspan x="0" y="0" font-family="'Gotham-Medium'" font-size="62.0722">LORD</tspan><tspan x="0" y="43.815" font-family="'Gotham-Light'" font-size="43.8157">EVENTS</tspan></text>
	<g display="inline">
		<g>
			<defs>
				<polygon id="SVGID_1_" points="-461.965,-432.917 -494.259,-389.261 -519.972,-389.261 -531.937,-450.858 -555.26,-450.858 
					-578.582,-450.858 -590.546,-389.261 -616.26,-389.261 -648.554,-432.917 -679.053,-413.785 -643.9,-310.92 -555.26,-310.92 
					-469.792,-310.92 -431.467,-413.785 				"/>
			</defs>
			<clipPath id="SVGID_2_">
				<use xlink:href="#SVGID_1_"  overflow="visible"/>
			</clipPath>
			<g clip-path="url(#SVGID_2_)">
				<polygon fill="#17083D" points="-684.326,-271.953 -689.826,-275.711 -695.325,-271.953 				"/>
				<polygon fill="#14073E" points="-693.299,-271.953 -688.308,-275.363 -701.279,-275.363 -701.279,-271.953 				"/>
				<polygon fill="#15083E" points="-701.279,-283.535 -701.279,-274.675 -688.308,-274.675 				"/>
				<polygon fill="#1D0839" points="-593.295,-271.953 -598.793,-275.711 -604.292,-271.953 				"/>
				<polygon fill="#19083D" points="-602.269,-271.953 -597.277,-275.363 -691.341,-275.363 -686.351,-271.953 				"/>
				<polygon fill="#17073E" points="-597.277,-274.675 -691.341,-274.675 -644.309,-306.81 				"/>
				<polygon fill="#16083E" points="-701.279,-306.463 -701.279,-282.152 -689.826,-274.328 -642.792,-306.463 				"/>
				<polygon fill="#1A0E45" points="-701.279,-305.772 -642.792,-305.772 -689.826,-337.909 -701.279,-330.083 				"/>
				<polygon fill="#281946" points="-701.279,-337.566 -701.279,-328.703 -688.308,-337.566 				"/>
				<polygon fill="#2F1F4D" points="-701.279,-345.734 -701.279,-336.873 -688.308,-336.873 				"/>
				<polygon fill="#2F0B3F" points="-502.264,-271.953 -507.762,-275.711 -513.261,-271.953 				"/>
				<polygon fill="#2F0A3B" points="-511.235,-271.953 -506.243,-275.363 -600.311,-275.363 -595.319,-271.953 				"/>
				<polygon fill="#310B3E" points="-506.243,-274.675 -600.311,-274.675 -553.277,-306.81 				"/>
				<polygon fill="#290B41" points="-598.793,-274.328 -645.826,-306.463 -551.759,-306.463 				"/>
				<polygon fill="#3B0E46" points="-551.759,-305.772 -645.826,-305.772 -598.793,-337.909 				"/>
				<polygon fill="#2A1149" points="-644.309,-305.426 -691.341,-337.566 -597.277,-337.566 				"/>
				<polygon fill="#3F2052" points="-597.277,-336.873 -691.341,-336.873 -644.309,-369.008 				"/>
				<polygon fill="#2E2156" points="-701.279,-368.664 -701.279,-344.353 -689.826,-336.526 -642.792,-368.664 				"/>
				<polygon fill="#393162" points="-701.279,-367.972 -642.792,-367.972 -689.826,-400.107 -701.279,-392.281 				"/>
				<polygon fill="#2A255A" points="-701.279,-399.765 -701.279,-390.901 -688.308,-399.765 				"/>
				<polygon fill="#25255F" points="-701.279,-407.935 -701.279,-399.072 -688.308,-399.072 				"/>
				<polygon fill="#3F2557" points="-411.23,-271.953 -416.728,-275.711 -422.228,-271.953 				"/>
				<polygon fill="#320F48" points="-420.203,-271.953 -415.212,-275.363 -509.279,-275.363 -504.289,-271.953 				"/>
				<polygon fill="#731B49" points="-415.212,-274.675 -509.279,-274.675 -462.246,-306.81 				"/>
				<polygon fill="#4E0D43" points="-507.762,-274.328 -554.794,-306.463 -460.729,-306.463 				"/>
				<polygon fill="#6D1149" points="-460.729,-305.772 -554.794,-305.772 -507.762,-337.909 				"/>
				<polygon fill="#4F0E4A" points="-553.277,-305.426 -600.311,-337.566 -506.243,-337.566 				"/>
				<polygon fill="#732B55" points="-506.243,-336.873 -600.311,-336.873 -553.277,-369.008 				"/>
				<polygon fill="#73375E" points="-598.793,-336.526 -645.826,-368.664 -551.759,-368.664 				"/>
				<polygon fill="#A55B75" points="-551.759,-367.972 -645.826,-367.972 -598.793,-400.107 				"/>
				<polygon fill="#97637F" points="-644.309,-367.629 -691.341,-399.765 -597.277,-399.765 				"/>
				<polygon fill="#C27891" points="-597.277,-399.072 -691.341,-399.072 -644.309,-431.208 				"/>
				<polygon fill="#865381" points="-701.279,-430.864 -701.279,-406.555 -689.826,-398.729 -642.792,-430.864 				"/>
				<polygon fill="#C06A8A" points="-701.279,-430.174 -642.792,-430.174 -689.826,-462.309 -701.279,-454.483 				"/>
				<polygon fill="#8A5588" points="-701.279,-461.961 -701.279,-453.1 -688.308,-461.961 				"/>
				<polygon fill="#392553" points="-410.438,-275.363 -418.246,-275.363 -413.256,-271.953 -410.438,-271.953 				"/>
				<polygon fill="#331653" points="-410.438,-280.008 -418.246,-274.675 -410.438,-274.675 				"/>
				<polygon fill="#631750" points="-410.438,-306.463 -463.764,-306.463 -416.728,-274.328 -410.438,-278.625 				"/>
				<polygon fill="#7B1D4B" points="-410.438,-333.61 -416.728,-337.909 -463.764,-305.772 -410.438,-305.772 				"/>
				<polygon fill="#C93751" points="-462.246,-305.426 -509.279,-337.566 -415.212,-337.566 				"/>
				<polygon fill="#77194E" points="-415.212,-336.873 -509.279,-336.873 -462.246,-369.008 				"/>
				<polygon fill="#944760" points="-507.762,-336.526 -554.794,-368.664 -460.729,-368.664 				"/>
				<polygon fill="#D6917F" points="-460.729,-367.972 -554.794,-367.972 -507.762,-400.107 				"/>
				<polygon fill="#EBBD9A" points="-553.277,-367.629 -600.311,-399.765 -506.243,-399.765 				"/>
				<polygon fill="#E2A49C" points="-506.243,-399.072 -600.311,-399.072 -553.277,-431.208 				"/>
				<polygon fill="#D98797" points="-598.793,-398.729 -645.826,-430.864 -551.759,-430.864 				"/>
				<polygon fill="#EDB3AE" points="-551.759,-430.174 -645.826,-430.174 -598.793,-462.309 				"/>
				<polygon fill="#F1CDBF" points="-644.309,-429.827 -691.341,-461.961 -597.277,-461.961 				"/>
				<polygon fill="#170947" points="-410.438,-337.566 -418.246,-337.566 -410.438,-332.23 				"/>
				<polygon fill="#180843" points="-410.438,-342.207 -418.246,-336.873 -410.438,-336.873 				"/>
				<polygon fill="#1C0A48" points="-410.438,-368.664 -463.764,-368.664 -416.728,-336.526 -410.438,-340.824 				"/>
				<polygon fill="#250D4E" points="-410.438,-395.81 -416.728,-400.107 -463.764,-367.972 -410.438,-367.972 				"/>
				<polygon fill="#62235B" points="-462.246,-367.629 -509.279,-399.765 -415.212,-399.765 				"/>
				<polygon fill="#822A66" points="-415.212,-399.072 -509.279,-399.072 -462.246,-431.208 				"/>
				<polygon fill="#CF7B8C" points="-507.762,-398.729 -554.794,-430.864 -460.729,-430.864 				"/>
				<polygon fill="#DE6A92" points="-460.729,-430.174 -554.794,-430.174 -507.762,-462.309 				"/>
				<polygon fill="#ECB0BC" points="-553.277,-429.827 -600.311,-461.961 -506.243,-461.961 				"/>
				<polygon fill="#4E0E4D" points="-410.438,-399.765 -418.246,-399.765 -410.438,-394.43 				"/>
				<polygon fill="#A02B58" points="-410.438,-404.406 -418.246,-399.072 -410.438,-399.072 				"/>
				<polygon fill="#B63869" points="-410.438,-430.864 -463.764,-430.864 -416.728,-398.729 -410.438,-403.027 				"/>
				<polygon fill="#F0807E" points="-410.438,-458.011 -416.728,-462.309 -463.764,-430.174 -410.438,-430.174 				"/>
				<polygon fill="#F090A1" points="-462.246,-429.827 -509.279,-461.961 -415.212,-461.961 				"/>
				<polygon fill="#EFA190" points="-410.438,-461.961 -418.246,-461.961 -410.438,-456.628 				"/>
			</g>
		</g>
		<g>
			<defs>
				<rect id="SVGID_3_" x="-642.573" y="-298.871" width="173.43" height="18.538"/>
			</defs>
			<clipPath id="SVGID_4_">
				<use xlink:href="#SVGID_3_"  overflow="visible"/>
			</clipPath>
			<g clip-path="url(#SVGID_4_)">
				<polygon fill="#17083D" points="-684.326,-271.953 -689.826,-275.711 -695.325,-271.953 				"/>
				<polygon fill="#14073E" points="-693.299,-271.953 -688.308,-275.363 -701.279,-275.363 -701.279,-271.953 				"/>
				<polygon fill="#15083E" points="-701.279,-283.535 -701.279,-274.675 -688.308,-274.675 				"/>
				<polygon fill="#1D0839" points="-593.295,-271.953 -598.793,-275.711 -604.292,-271.953 				"/>
				<polygon fill="#19083D" points="-602.269,-271.953 -597.277,-275.363 -691.341,-275.363 -686.351,-271.953 				"/>
				<polygon fill="#17073E" points="-597.277,-274.675 -691.341,-274.675 -644.309,-306.81 				"/>
				<polygon fill="#16083E" points="-701.279,-306.463 -701.279,-282.152 -689.826,-274.328 -642.792,-306.463 				"/>
				<polygon fill="#1A0E45" points="-701.279,-305.772 -642.792,-305.772 -689.826,-337.909 -701.279,-330.083 				"/>
				<polygon fill="#281946" points="-701.279,-337.566 -701.279,-328.703 -688.308,-337.566 				"/>
				<polygon fill="#2F1F4D" points="-701.279,-345.734 -701.279,-336.873 -688.308,-336.873 				"/>
				<polygon fill="#2F0B3F" points="-502.264,-271.953 -507.762,-275.711 -513.261,-271.953 				"/>
				<polygon fill="#2F0A3B" points="-511.235,-271.953 -506.243,-275.363 -600.311,-275.363 -595.319,-271.953 				"/>
				<polygon fill="#310B3E" points="-506.243,-274.675 -600.311,-274.675 -553.277,-306.81 				"/>
				<polygon fill="#290B41" points="-598.793,-274.328 -645.826,-306.463 -551.759,-306.463 				"/>
				<polygon fill="#3B0E46" points="-551.759,-305.772 -645.826,-305.772 -598.793,-337.909 				"/>
				<polygon fill="#2A1149" points="-644.309,-305.426 -691.341,-337.566 -597.277,-337.566 				"/>
				<polygon fill="#3F2052" points="-597.277,-336.873 -691.341,-336.873 -644.309,-369.008 				"/>
				<polygon fill="#2E2156" points="-701.279,-368.664 -701.279,-344.353 -689.826,-336.526 -642.792,-368.664 				"/>
				<polygon fill="#393162" points="-701.279,-367.972 -642.792,-367.972 -689.826,-400.107 -701.279,-392.281 				"/>
				<polygon fill="#2A255A" points="-701.279,-399.765 -701.279,-390.901 -688.308,-399.765 				"/>
				<polygon fill="#25255F" points="-701.279,-407.935 -701.279,-399.072 -688.308,-399.072 				"/>
				<polygon fill="#3F2557" points="-411.23,-271.953 -416.728,-275.711 -422.228,-271.953 				"/>
				<polygon fill="#320F48" points="-420.203,-271.953 -415.212,-275.363 -509.279,-275.363 -504.289,-271.953 				"/>
				<polygon fill="#731B49" points="-415.212,-274.675 -509.279,-274.675 -462.246,-306.81 				"/>
				<polygon fill="#4E0D43" points="-507.762,-274.328 -554.794,-306.463 -460.729,-306.463 				"/>
				<polygon fill="#6D1149" points="-460.729,-305.772 -554.794,-305.772 -507.762,-337.909 				"/>
				<polygon fill="#4F0E4A" points="-553.277,-305.426 -600.311,-337.566 -506.243,-337.566 				"/>
				<polygon fill="#732B55" points="-506.243,-336.873 -600.311,-336.873 -553.277,-369.008 				"/>
				<polygon fill="#73375E" points="-598.793,-336.526 -645.826,-368.664 -551.759,-368.664 				"/>
				<polygon fill="#A55B75" points="-551.759,-367.972 -645.826,-367.972 -598.793,-400.107 				"/>
				<polygon fill="#97637F" points="-644.309,-367.629 -691.341,-399.765 -597.277,-399.765 				"/>
				<polygon fill="#C27891" points="-597.277,-399.072 -691.341,-399.072 -644.309,-431.208 				"/>
				<polygon fill="#865381" points="-701.279,-430.864 -701.279,-406.555 -689.826,-398.729 -642.792,-430.864 				"/>
				<polygon fill="#C06A8A" points="-701.279,-430.174 -642.792,-430.174 -689.826,-462.309 -701.279,-454.483 				"/>
				<polygon fill="#8A5588" points="-701.279,-461.961 -701.279,-453.1 -688.308,-461.961 				"/>
				<polygon fill="#392553" points="-410.438,-275.363 -418.246,-275.363 -413.256,-271.953 -410.438,-271.953 				"/>
				<polygon fill="#331653" points="-410.438,-280.008 -418.246,-274.675 -410.438,-274.675 				"/>
				<polygon fill="#631750" points="-410.438,-306.463 -463.764,-306.463 -416.728,-274.328 -410.438,-278.625 				"/>
				<polygon fill="#7B1D4B" points="-410.438,-333.61 -416.728,-337.909 -463.764,-305.772 -410.438,-305.772 				"/>
				<polygon fill="#C93751" points="-462.246,-305.426 -509.279,-337.566 -415.212,-337.566 				"/>
				<polygon fill="#77194E" points="-415.212,-336.873 -509.279,-336.873 -462.246,-369.008 				"/>
				<polygon fill="#944760" points="-507.762,-336.526 -554.794,-368.664 -460.729,-368.664 				"/>
				<polygon fill="#D6917F" points="-460.729,-367.972 -554.794,-367.972 -507.762,-400.107 				"/>
				<polygon fill="#EBBD9A" points="-553.277,-367.629 -600.311,-399.765 -506.243,-399.765 				"/>
				<polygon fill="#E2A49C" points="-506.243,-399.072 -600.311,-399.072 -553.277,-431.208 				"/>
				<polygon fill="#D98797" points="-598.793,-398.729 -645.826,-430.864 -551.759,-430.864 				"/>
				<polygon fill="#EDB3AE" points="-551.759,-430.174 -645.826,-430.174 -598.793,-462.309 				"/>
				<polygon fill="#F1CDBF" points="-644.309,-429.827 -691.341,-461.961 -597.277,-461.961 				"/>
				<polygon fill="#170947" points="-410.438,-337.566 -418.246,-337.566 -410.438,-332.23 				"/>
				<polygon fill="#180843" points="-410.438,-342.207 -418.246,-336.873 -410.438,-336.873 				"/>
				<polygon fill="#1C0A48" points="-410.438,-368.664 -463.764,-368.664 -416.728,-336.526 -410.438,-340.824 				"/>
				<polygon fill="#250D4E" points="-410.438,-395.81 -416.728,-400.107 -463.764,-367.972 -410.438,-367.972 				"/>
				<polygon fill="#62235B" points="-462.246,-367.629 -509.279,-399.765 -415.212,-399.765 				"/>
				<polygon fill="#822A66" points="-415.212,-399.072 -509.279,-399.072 -462.246,-431.208 				"/>
				<polygon fill="#CF7B8C" points="-507.762,-398.729 -554.794,-430.864 -460.729,-430.864 				"/>
				<polygon fill="#DE6A92" points="-460.729,-430.174 -554.794,-430.174 -507.762,-462.309 				"/>
				<polygon fill="#ECB0BC" points="-553.277,-429.827 -600.311,-461.961 -506.243,-461.961 				"/>
				<polygon fill="#4E0E4D" points="-410.438,-399.765 -418.246,-399.765 -410.438,-394.43 				"/>
				<polygon fill="#A02B58" points="-410.438,-404.406 -418.246,-399.072 -410.438,-399.072 				"/>
				<polygon fill="#B63869" points="-410.438,-430.864 -463.764,-430.864 -416.728,-398.729 -410.438,-403.027 				"/>
				<polygon fill="#F0807E" points="-410.438,-458.011 -416.728,-462.309 -463.764,-430.174 -410.438,-430.174 				"/>
				<polygon fill="#F090A1" points="-462.246,-429.827 -509.279,-461.961 -415.212,-461.961 				"/>
				<polygon fill="#EFA190" points="-410.438,-461.961 -418.246,-461.961 -410.438,-456.628 				"/>
			</g>
		</g>
	</g>
	<text transform="matrix(1 0 0 1 463.9551 -311.9482)" display="inline"><tspan x="0" y="0" fill="#1F9FBB" font-family="'Gotham-Medium'" font-size="62.0722">LORD</tspan><tspan x="0" y="43.815" fill="#643D83" font-family="'Gotham-Light'" font-size="43.8157">EVENTS</tspan></text>
	<linearGradient id="SVGID_5_" gradientUnits="userSpaceOnUse" x1="422.833" y1="-312.6855" x2="685.833" y2="-312.6855">
		<stop  offset="0" style="stop-color:#673881"/>
		<stop  offset="1" style="stop-color:#1DA1BC"/>
	</linearGradient>
	
		<rect x="426.333" y="-395.686" display="inline" fill="none" stroke="url(#SVGID_5_)" stroke-width="7" stroke-miterlimit="10" width="256" height="166"/>
</g>
<g id="Layer_4" display="none">
	<linearGradient id="SVGID_6_" gradientUnits="userSpaceOnUse" x1="277.8555" y1="-582.6079" x2="826.8303" y2="-30.6336">
		<stop  offset="0.2767" style="stop-color:#673881"/>
		<stop  offset="1" style="stop-color:#1DA1BC"/>
	</linearGradient>
	<rect x="290.333" y="-568.686" display="inline" fill="url(#SVGID_6_)" width="504" height="504"/>
</g>
<g id="Layer_1">
	<g>
		<g>
			<path fill="#FFFFFF" d="M102.191,76.472c8.93-21.504,1.086-46.959-19.004-59.516c-6.939-4.336-14.523-6.688-22.111-7.242v66.758
				H102.191z"/>
		</g>
		<g>
			<path fill="#FFFFFF" d="M43.912,92.101V11.552C31.5,15.19,20.514,23.774,14.193,36.464C3.334,58.267,10.631,85.087,31.027,98.401
				c0.807,0.525,1.621,1.023,2.445,1.496c10.75,6.164,17.76,17.107,18.75,29.463c0.148,1.844,0.506,3.705,1.09,5.551
				c3.764,11.912,16.064,19.252,28.328,16.881c14.279-2.762,23.004-16.955,19.33-30.77c-0.457-1.719-1.084-3.348-1.857-4.873
				c-3.807-7.506-4.801-15.982-3.172-24.049H43.912z"/>
		</g>
	</g>
</g>
<g id="Layer_2">
</g>
</svg>
