<?xml version="1.0" encoding="utf-8"?>
<!-- Generator: Adobe Illustrator 16.0.0, SVG Export Plug-In . SVG Version: 6.00 Build 0)  -->
<!DOCTYPE svg PUBLIC "-//W3C//DTD SVG 1.1//EN" "http://www.w3.org/Graphics/SVG/1.1/DTD/svg11.dtd">
<svg version="1.1" xmlns="http://www.w3.org/2000/svg" xmlns:xlink="http://www.w3.org/1999/xlink" x="0px" y="0px"
	 width="541.333px" height="155.333px" viewBox="0 0 541.333 155.333" enable-background="new 0 0 541.333 155.333"
	 xml:space="preserve">
<g id="otros" display="none">
	<text transform="matrix(1 0 0 1 -367.1562 -386.1855)" display="inline"><tspan x="0" y="0" font-family="'Gotham-Medium'" font-size="62.0722">LORD</tspan><tspan x="0" y="43.815" font-family="'Gotham-Light'" font-size="43.8157">EVENTS</tspan></text>
	<g display="inline">
		<g>
			<defs>
				<polygon id="SVGID_1_" points="-181.298,-595.899 -213.592,-552.242 -239.305,-552.242 -251.27,-613.84 -274.593,-613.84 
					-297.915,-613.84 -309.879,-552.242 -335.593,-552.242 -367.887,-595.899 -398.386,-576.766 -363.233,-473.901 
					-274.593,-473.901 -189.125,-473.901 -150.8,-576.766 				"/>
			</defs>
			<clipPath id="SVGID_2_">
				<use xlink:href="#SVGID_1_"  overflow="visible"/>
			</clipPath>
			<g clip-path="url(#SVGID_2_)">
				<polygon fill="#17083D" points="-403.659,-434.935 -409.159,-438.692 -414.658,-434.935 				"/>
				<polygon fill="#14073E" points="-412.632,-434.935 -407.641,-438.345 -420.612,-438.345 -420.612,-434.935 				"/>
				<polygon fill="#15083E" points="-420.612,-446.517 -420.612,-437.656 -407.641,-437.656 				"/>
				<polygon fill="#1D0839" points="-312.628,-434.935 -318.126,-438.692 -323.625,-434.935 				"/>
				<polygon fill="#19083D" points="-321.602,-434.935 -316.61,-438.345 -410.674,-438.345 -405.684,-434.935 				"/>
				<polygon fill="#17073E" points="-316.61,-437.656 -410.674,-437.656 -363.642,-469.791 				"/>
				<polygon fill="#16083E" points="-420.612,-469.444 -420.612,-445.134 -409.159,-437.31 -362.125,-469.444 				"/>
				<polygon fill="#1A0E45" points="-420.612,-468.754 -362.125,-468.754 -409.159,-500.891 -420.612,-493.064 				"/>
				<polygon fill="#281946" points="-420.612,-500.548 -420.612,-491.684 -407.641,-500.548 				"/>
				<polygon fill="#2F1F4D" points="-420.612,-508.716 -420.612,-499.854 -407.641,-499.854 				"/>
				<polygon fill="#2F0B3F" points="-221.597,-434.935 -227.095,-438.692 -232.594,-434.935 				"/>
				<polygon fill="#2F0A3B" points="-230.568,-434.935 -225.576,-438.345 -319.644,-438.345 -314.652,-434.935 				"/>
				<polygon fill="#310B3E" points="-225.576,-437.656 -319.644,-437.656 -272.61,-469.791 				"/>
				<polygon fill="#290B41" points="-318.126,-437.31 -365.159,-469.444 -271.092,-469.444 				"/>
				<polygon fill="#3B0E46" points="-271.092,-468.754 -365.159,-468.754 -318.126,-500.891 				"/>
				<polygon fill="#2A1149" points="-363.642,-468.407 -410.674,-500.548 -316.61,-500.548 				"/>
				<polygon fill="#3F2052" points="-316.61,-499.854 -410.674,-499.854 -363.642,-531.989 				"/>
				<polygon fill="#2E2156" points="-420.612,-531.645 -420.612,-507.334 -409.159,-499.507 -362.125,-531.645 				"/>
				<polygon fill="#393162" points="-420.612,-530.954 -362.125,-530.954 -409.159,-563.089 -420.612,-555.262 				"/>
				<polygon fill="#2A255A" points="-420.612,-562.746 -420.612,-553.882 -407.641,-562.746 				"/>
				<polygon fill="#25255F" points="-420.612,-570.916 -420.612,-562.054 -407.641,-562.054 				"/>
				<polygon fill="#3F2557" points="-130.563,-434.935 -136.061,-438.692 -141.561,-434.935 				"/>
				<polygon fill="#320F48" points="-139.536,-434.935 -134.545,-438.345 -228.612,-438.345 -223.622,-434.935 				"/>
				<polygon fill="#731B49" points="-134.545,-437.656 -228.612,-437.656 -181.579,-469.791 				"/>
				<polygon fill="#4E0D43" points="-227.095,-437.31 -274.127,-469.444 -180.062,-469.444 				"/>
				<polygon fill="#6D1149" points="-180.062,-468.754 -274.127,-468.754 -227.095,-500.891 				"/>
				<polygon fill="#4F0E4A" points="-272.61,-468.407 -319.644,-500.548 -225.576,-500.548 				"/>
				<polygon fill="#732B55" points="-225.576,-499.854 -319.644,-499.854 -272.61,-531.989 				"/>
				<polygon fill="#73375E" points="-318.126,-499.507 -365.159,-531.645 -271.092,-531.645 				"/>
				<polygon fill="#A55B75" points="-271.092,-530.954 -365.159,-530.954 -318.126,-563.089 				"/>
				<polygon fill="#97637F" points="-363.642,-530.61 -410.674,-562.746 -316.61,-562.746 				"/>
				<polygon fill="#C27891" points="-316.61,-562.054 -410.674,-562.054 -363.642,-594.19 				"/>
				<polygon fill="#865381" points="-420.612,-593.845 -420.612,-569.536 -409.159,-561.71 -362.125,-593.845 				"/>
				<polygon fill="#C06A8A" points="-420.612,-593.155 -362.125,-593.155 -409.159,-625.29 -420.612,-617.464 				"/>
				<polygon fill="#8A5588" points="-420.612,-624.943 -420.612,-616.082 -407.641,-624.943 				"/>
				<polygon fill="#392553" points="-129.771,-438.345 -137.579,-438.345 -132.589,-434.935 -129.771,-434.935 				"/>
				<polygon fill="#331653" points="-129.771,-442.989 -137.579,-437.656 -129.771,-437.656 				"/>
				<polygon fill="#631750" points="-129.771,-469.444 -183.097,-469.444 -136.061,-437.31 -129.771,-441.606 				"/>
				<polygon fill="#7B1D4B" points="-129.771,-496.591 -136.061,-500.891 -183.097,-468.754 -129.771,-468.754 				"/>
				<polygon fill="#C93751" points="-181.579,-468.407 -228.612,-500.548 -134.545,-500.548 				"/>
				<polygon fill="#77194E" points="-134.545,-499.854 -228.612,-499.854 -181.579,-531.989 				"/>
				<polygon fill="#944760" points="-227.095,-499.507 -274.127,-531.645 -180.062,-531.645 				"/>
				<polygon fill="#D6917F" points="-180.062,-530.954 -274.127,-530.954 -227.095,-563.089 				"/>
				<polygon fill="#EBBD9A" points="-272.61,-530.61 -319.644,-562.746 -225.576,-562.746 				"/>
				<polygon fill="#E2A49C" points="-225.576,-562.054 -319.644,-562.054 -272.61,-594.19 				"/>
				<polygon fill="#D98797" points="-318.126,-561.71 -365.159,-593.845 -271.092,-593.845 				"/>
				<polygon fill="#EDB3AE" points="-271.092,-593.155 -365.159,-593.155 -318.126,-625.29 				"/>
				<polygon fill="#F1CDBF" points="-363.642,-592.808 -410.674,-624.943 -316.61,-624.943 				"/>
				<polygon fill="#170947" points="-129.771,-500.548 -137.579,-500.548 -129.771,-495.212 				"/>
				<polygon fill="#180843" points="-129.771,-505.188 -137.579,-499.854 -129.771,-499.854 				"/>
				<polygon fill="#1C0A48" points="-129.771,-531.645 -183.097,-531.645 -136.061,-499.507 -129.771,-503.806 				"/>
				<polygon fill="#250D4E" points="-129.771,-558.792 -136.061,-563.089 -183.097,-530.954 -129.771,-530.954 				"/>
				<polygon fill="#62235B" points="-181.579,-530.61 -228.612,-562.746 -134.545,-562.746 				"/>
				<polygon fill="#822A66" points="-134.545,-562.054 -228.612,-562.054 -181.579,-594.19 				"/>
				<polygon fill="#CF7B8C" points="-227.095,-561.71 -274.127,-593.845 -180.062,-593.845 				"/>
				<polygon fill="#DE6A92" points="-180.062,-593.155 -274.127,-593.155 -227.095,-625.29 				"/>
				<polygon fill="#ECB0BC" points="-272.61,-592.808 -319.644,-624.943 -225.576,-624.943 				"/>
				<polygon fill="#4E0E4D" points="-129.771,-562.746 -137.579,-562.746 -129.771,-557.411 				"/>
				<polygon fill="#A02B58" points="-129.771,-567.388 -137.579,-562.054 -129.771,-562.054 				"/>
				<polygon fill="#B63869" points="-129.771,-593.845 -183.097,-593.845 -136.061,-561.71 -129.771,-566.008 				"/>
				<polygon fill="#F0807E" points="-129.771,-620.993 -136.061,-625.29 -183.097,-593.155 -129.771,-593.155 				"/>
				<polygon fill="#F090A1" points="-181.579,-592.808 -228.612,-624.943 -134.545,-624.943 				"/>
				<polygon fill="#EFA190" points="-129.771,-624.943 -137.579,-624.943 -129.771,-619.609 				"/>
			</g>
		</g>
		<g>
			<defs>
				<rect id="SVGID_3_" x="-361.906" y="-461.853" width="173.43" height="18.538"/>
			</defs>
			<clipPath id="SVGID_4_">
				<use xlink:href="#SVGID_3_"  overflow="visible"/>
			</clipPath>
			<g clip-path="url(#SVGID_4_)">
				<polygon fill="#17083D" points="-403.659,-434.935 -409.159,-438.692 -414.658,-434.935 				"/>
				<polygon fill="#14073E" points="-412.632,-434.935 -407.641,-438.345 -420.612,-438.345 -420.612,-434.935 				"/>
				<polygon fill="#15083E" points="-420.612,-446.517 -420.612,-437.656 -407.641,-437.656 				"/>
				<polygon fill="#1D0839" points="-312.628,-434.935 -318.126,-438.692 -323.625,-434.935 				"/>
				<polygon fill="#19083D" points="-321.602,-434.935 -316.61,-438.345 -410.674,-438.345 -405.684,-434.935 				"/>
				<polygon fill="#17073E" points="-316.61,-437.656 -410.674,-437.656 -363.642,-469.791 				"/>
				<polygon fill="#16083E" points="-420.612,-469.444 -420.612,-445.134 -409.159,-437.31 -362.125,-469.444 				"/>
				<polygon fill="#1A0E45" points="-420.612,-468.754 -362.125,-468.754 -409.159,-500.891 -420.612,-493.064 				"/>
				<polygon fill="#281946" points="-420.612,-500.548 -420.612,-491.684 -407.641,-500.548 				"/>
				<polygon fill="#2F1F4D" points="-420.612,-508.716 -420.612,-499.854 -407.641,-499.854 				"/>
				<polygon fill="#2F0B3F" points="-221.597,-434.935 -227.095,-438.692 -232.594,-434.935 				"/>
				<polygon fill="#2F0A3B" points="-230.568,-434.935 -225.576,-438.345 -319.644,-438.345 -314.652,-434.935 				"/>
				<polygon fill="#310B3E" points="-225.576,-437.656 -319.644,-437.656 -272.61,-469.791 				"/>
				<polygon fill="#290B41" points="-318.126,-437.31 -365.159,-469.444 -271.092,-469.444 				"/>
				<polygon fill="#3B0E46" points="-271.092,-468.754 -365.159,-468.754 -318.126,-500.891 				"/>
				<polygon fill="#2A1149" points="-363.642,-468.407 -410.674,-500.548 -316.61,-500.548 				"/>
				<polygon fill="#3F2052" points="-316.61,-499.854 -410.674,-499.854 -363.642,-531.989 				"/>
				<polygon fill="#2E2156" points="-420.612,-531.645 -420.612,-507.334 -409.159,-499.507 -362.125,-531.645 				"/>
				<polygon fill="#393162" points="-420.612,-530.954 -362.125,-530.954 -409.159,-563.089 -420.612,-555.262 				"/>
				<polygon fill="#2A255A" points="-420.612,-562.746 -420.612,-553.882 -407.641,-562.746 				"/>
				<polygon fill="#25255F" points="-420.612,-570.916 -420.612,-562.054 -407.641,-562.054 				"/>
				<polygon fill="#3F2557" points="-130.563,-434.935 -136.061,-438.692 -141.561,-434.935 				"/>
				<polygon fill="#320F48" points="-139.536,-434.935 -134.545,-438.345 -228.612,-438.345 -223.622,-434.935 				"/>
				<polygon fill="#731B49" points="-134.545,-437.656 -228.612,-437.656 -181.579,-469.791 				"/>
				<polygon fill="#4E0D43" points="-227.095,-437.31 -274.127,-469.444 -180.062,-469.444 				"/>
				<polygon fill="#6D1149" points="-180.062,-468.754 -274.127,-468.754 -227.095,-500.891 				"/>
				<polygon fill="#4F0E4A" points="-272.61,-468.407 -319.644,-500.548 -225.576,-500.548 				"/>
				<polygon fill="#732B55" points="-225.576,-499.854 -319.644,-499.854 -272.61,-531.989 				"/>
				<polygon fill="#73375E" points="-318.126,-499.507 -365.159,-531.645 -271.092,-531.645 				"/>
				<polygon fill="#A55B75" points="-271.092,-530.954 -365.159,-530.954 -318.126,-563.089 				"/>
				<polygon fill="#97637F" points="-363.642,-530.61 -410.674,-562.746 -316.61,-562.746 				"/>
				<polygon fill="#C27891" points="-316.61,-562.054 -410.674,-562.054 -363.642,-594.19 				"/>
				<polygon fill="#865381" points="-420.612,-593.845 -420.612,-569.536 -409.159,-561.71 -362.125,-593.845 				"/>
				<polygon fill="#C06A8A" points="-420.612,-593.155 -362.125,-593.155 -409.159,-625.29 -420.612,-617.464 				"/>
				<polygon fill="#8A5588" points="-420.612,-624.943 -420.612,-616.082 -407.641,-624.943 				"/>
				<polygon fill="#392553" points="-129.771,-438.345 -137.579,-438.345 -132.589,-434.935 -129.771,-434.935 				"/>
				<polygon fill="#331653" points="-129.771,-442.989 -137.579,-437.656 -129.771,-437.656 				"/>
				<polygon fill="#631750" points="-129.771,-469.444 -183.097,-469.444 -136.061,-437.31 -129.771,-441.606 				"/>
				<polygon fill="#7B1D4B" points="-129.771,-496.591 -136.061,-500.891 -183.097,-468.754 -129.771,-468.754 				"/>
				<polygon fill="#C93751" points="-181.579,-468.407 -228.612,-500.548 -134.545,-500.548 				"/>
				<polygon fill="#77194E" points="-134.545,-499.854 -228.612,-499.854 -181.579,-531.989 				"/>
				<polygon fill="#944760" points="-227.095,-499.507 -274.127,-531.645 -180.062,-531.645 				"/>
				<polygon fill="#D6917F" points="-180.062,-530.954 -274.127,-530.954 -227.095,-563.089 				"/>
				<polygon fill="#EBBD9A" points="-272.61,-530.61 -319.644,-562.746 -225.576,-562.746 				"/>
				<polygon fill="#E2A49C" points="-225.576,-562.054 -319.644,-562.054 -272.61,-594.19 				"/>
				<polygon fill="#D98797" points="-318.126,-561.71 -365.159,-593.845 -271.092,-593.845 				"/>
				<polygon fill="#EDB3AE" points="-271.092,-593.155 -365.159,-593.155 -318.126,-625.29 				"/>
				<polygon fill="#F1CDBF" points="-363.642,-592.808 -410.674,-624.943 -316.61,-624.943 				"/>
				<polygon fill="#170947" points="-129.771,-500.548 -137.579,-500.548 -129.771,-495.212 				"/>
				<polygon fill="#180843" points="-129.771,-505.188 -137.579,-499.854 -129.771,-499.854 				"/>
				<polygon fill="#1C0A48" points="-129.771,-531.645 -183.097,-531.645 -136.061,-499.507 -129.771,-503.806 				"/>
				<polygon fill="#250D4E" points="-129.771,-558.792 -136.061,-563.089 -183.097,-530.954 -129.771,-530.954 				"/>
				<polygon fill="#62235B" points="-181.579,-530.61 -228.612,-562.746 -134.545,-562.746 				"/>
				<polygon fill="#822A66" points="-134.545,-562.054 -228.612,-562.054 -181.579,-594.19 				"/>
				<polygon fill="#CF7B8C" points="-227.095,-561.71 -274.127,-593.845 -180.062,-593.845 				"/>
				<polygon fill="#DE6A92" points="-180.062,-593.155 -274.127,-593.155 -227.095,-625.29 				"/>
				<polygon fill="#ECB0BC" points="-272.61,-592.808 -319.644,-624.943 -225.576,-624.943 				"/>
				<polygon fill="#4E0E4D" points="-129.771,-562.746 -137.579,-562.746 -129.771,-557.411 				"/>
				<polygon fill="#A02B58" points="-129.771,-567.388 -137.579,-562.054 -129.771,-562.054 				"/>
				<polygon fill="#B63869" points="-129.771,-593.845 -183.097,-593.845 -136.061,-561.71 -129.771,-566.008 				"/>
				<polygon fill="#F0807E" points="-129.771,-620.993 -136.061,-625.29 -183.097,-593.155 -129.771,-593.155 				"/>
				<polygon fill="#F090A1" points="-181.579,-592.808 -228.612,-624.943 -134.545,-624.943 				"/>
				<polygon fill="#EFA190" points="-129.771,-624.943 -137.579,-624.943 -129.771,-619.609 				"/>
			</g>
		</g>
	</g>
	<text transform="matrix(1 0 0 1 744.6221 -474.9297)" display="inline"><tspan x="0" y="0" fill="#1F9FBB" font-family="'Gotham-Medium'" font-size="62.0722">LORD</tspan><tspan x="0" y="43.815" fill="#643D83" font-family="'Gotham-Light'" font-size="43.8157">EVENTS</tspan></text>
	<linearGradient id="SVGID_5_" gradientUnits="userSpaceOnUse" x1="703.5" y1="-475.667" x2="966.5" y2="-475.667">
		<stop  offset="0" style="stop-color:#673881"/>
		<stop  offset="1" style="stop-color:#1DA1BC"/>
	</linearGradient>
	
		<rect x="707" y="-558.667" display="inline" fill="none" stroke="url(#SVGID_5_)" stroke-width="7" stroke-miterlimit="10" width="256" height="166"/>
</g>
<g id="Layer_4">
</g>
<g id="Layer_1">
	<path d="M112.908,45.646h7.635v36.499h22.843v6.952h-30.478V45.646z"/>
	<path d="M146.923,67.495v-0.124c0-12.228,9.436-22.47,22.781-22.47s22.656,10.117,22.656,22.346v0.124
		c0,12.229-9.436,22.471-22.78,22.471C156.234,89.842,146.923,79.724,146.923,67.495z M184.353,67.495v-0.124
		c0-8.442-6.145-15.456-14.772-15.456c-8.629,0-14.649,6.891-14.649,15.332v0.124c0,8.442,6.145,15.456,14.773,15.456
		C178.332,82.827,184.353,75.938,184.353,67.495z"/>
	<path d="M201.608,45.646h19.366c5.463,0,9.745,1.614,12.539,4.346c2.297,2.358,3.6,5.586,3.6,9.373v0.123
		c0,7.139-4.282,11.422-10.366,13.16l11.732,16.449h-9.001l-10.677-15.146h-9.559v15.146h-7.635V45.646z M220.416,67.185
		c5.463,0,8.938-2.855,8.938-7.262v-0.125c0-4.654-3.352-7.2-9.001-7.2h-11.11v14.587H220.416z"/>
	<path d="M246.486,45.646h16.2c13.656,0,23.092,9.373,23.092,21.602v0.124c0,12.229-9.436,21.726-23.092,21.726h-16.2V45.646z
		 M262.687,82.145c9.125,0,15.084-6.146,15.084-14.649v-0.124c0-8.504-5.959-14.773-15.084-14.773h-8.565v29.547H262.687z"/>
	<path d="M293.789,45.937h30.287v2.919h-27.124v16.724h24.387v2.918h-24.387v17.091h27.428v2.919h-30.591V45.937z"/>
	<path d="M330.879,45.937h3.528l16.664,39.164l16.725-39.164h3.345L352.409,88.81h-2.797L330.879,45.937z"/>
	<path d="M380.133,45.937h30.287v2.919h-27.126v16.724h24.389v2.918h-24.389v17.091h27.429v2.919h-30.59V45.937z"/>
	<path d="M420.873,45.937h2.98l29.374,37.035V45.937h3.041v42.57h-2.373l-29.981-37.828v37.828h-3.041V45.937z"/>
	<path d="M480.708,48.855h-14.84v-2.919h32.842v2.919h-14.84v39.651h-3.162V48.855z"/>
	<path d="M504.664,82.304l2.065-2.371c4.685,4.317,9.002,6.324,15.266,6.324c6.387,0,10.766-3.588,10.766-8.453v-0.123
		c0-4.499-2.372-7.114-12.042-9.061c-10.218-2.068-14.354-5.535-14.354-11.98v-0.122c0-6.325,5.777-11.19,13.685-11.19
		c6.202,0,10.277,1.702,14.596,5.17l-2.007,2.493c-4.015-3.468-8.028-4.805-12.711-4.805c-6.264,0-10.399,3.589-10.399,8.026v0.123
		c0,4.501,2.311,7.236,12.406,9.305c9.853,2.008,13.987,5.535,13.987,11.738v0.121c0,6.871-5.897,11.616-14.109,11.616
		C515.001,89.115,509.771,86.864,504.664,82.304z"/>
	<g>
		<g>
			<path d="M97.204,73.892c8.929-21.505,1.086-46.959-19.004-59.516c-6.94-4.337-14.523-6.688-22.111-7.242v66.758H97.204z"/>
			<path d="M38.925,89.521V8.971c-12.412,3.639-23.398,12.223-29.72,24.912C-1.653,55.686,5.644,82.506,26.039,95.82
				c0.807,0.526,1.622,1.024,2.446,1.496c10.75,6.165,17.76,17.107,18.75,29.463c0.147,1.845,0.506,3.706,1.089,5.552
				c3.765,11.912,16.064,19.252,28.329,16.88c14.278-2.761,23.004-16.954,19.329-30.769c-0.456-1.72-1.083-3.349-1.856-4.873
				c-3.808-7.507-4.801-15.983-3.173-24.049H38.925z"/>
		</g>
	</g>
</g>
<g id="Layer_2">
</g>
</svg>
