<?xml version="1.0" encoding="iso-8859-1"?>
<!-- Generator: Adobe Illustrator 19.0.0, SVG Export Plug-In . SVG Version: 6.00 Build 0)  -->
<svg version="1.1" id="Capa_1" xmlns="http://www.w3.org/2000/svg" xmlns:xlink="http://www.w3.org/1999/xlink" x="0px" y="0px"
	 viewBox="0 0 512 512" style="enable-background:new 0 0 512 512;" xml:space="preserve">
<g>
	<g>
		<circle cx="222.11" cy="195.82" r="15"/>
	</g>
</g>
<g>
	<g>
		<circle cx="289.89" cy="195.82" r="15"/>
	</g>
</g>
<g>
	<g>
		<path d="M417.808,161.81h0.002c0-13.433-1.639-26.689-4.878-39.567c5.993-5.964,9.295-14.007,9.289-22.322
			c5.832-8.015,7.655-18.483,4.462-28.309c-3.192-9.825-10.819-17.223-20.249-20.279c-5.821-8.023-15.214-12.991-25.545-12.991
			c-5.634,0-10.983,1.487-15.632,4.131C335.575,15.292,296.708,0,256,0s-79.575,15.292-109.257,42.473
			c-4.649-2.645-9.998-4.131-15.632-4.131c-10.331,0-19.724,4.968-25.545,12.991c-9.43,3.057-17.057,10.454-20.249,20.279
			c-3.193,9.825-1.37,20.294,4.462,28.309c-0.006,8.315,3.296,16.359,9.289,22.322c-3.239,12.878-4.878,26.134-4.878,39.567v190.948
			c-5.277,11.478-8.225,24.239-8.225,37.677V512h340.068V390.435c0-13.438-2.948-26.199-8.225-37.677V161.81z M362.43,130.256
			c6.038,1.741,12.467,1.644,18.458-0.306c1.064,0.347,2.145,0.613,3.232,0.843c2.437,10.104,3.689,20.488,3.689,31.016v154.786
			c-14.774-10.491-32.819-16.666-52.28-16.666h-17.852v-17.007c27.07-19.315,44.753-50.976,44.753-86.691V130.256z M202.556,116.428
			c0.132,0.403,0.158,1.228-0.574,1.76c-0.73,0.531-1.507,0.251-1.85,0.002l-8.819-6.409l-8.818,6.409
			c-0.343,0.251-1.118,0.528-1.85-0.003c-0.73-0.53-0.704-1.355-0.572-1.759l3.37-10.367l-8.821-6.406
			c-0.343-0.249-0.849-0.9-0.569-1.76c0.28-0.86,1.071-1.089,1.496-1.089l10.901,0.002l3.367-10.369
			c0.131-0.403,0.594-1.086,1.497-1.086c0.904,0,1.367,0.683,1.498,1.086l3.367,10.369l10.901-0.002
			c0.424,0,1.217,0.229,1.496,1.089c0.279,0.86-0.227,1.511-0.57,1.761l-8.819,6.406L202.556,116.428z M179.569,148.431
			c3.95,0.252,7.936-0.229,11.744-1.468c3.165,1.031,6.453,1.546,9.742,1.546c6.504,0,13.01-2.018,18.56-6.05
			c0.588-0.427,1.152-0.875,1.703-1.335c1.795,2.305,3.923,4.395,6.379,6.179c8.357,6.073,18.876,7.577,28.303,4.505
			c3.165,1.031,6.452,1.547,9.741,1.546c6.504,0,13.01-2.017,18.561-6.05c2.456-1.784,4.585-3.875,6.38-6.18
			c0.551,0.46,1.115,0.908,1.702,1.334c8.357,6.072,18.875,7.574,28.302,4.505c3.166,1.031,6.453,1.546,9.741,1.546
			c0.668,0,1.336-0.035,2.004-0.078v47.8c0,42.144-34.287,76.431-76.431,76.431c-42.144,0-76.431-34.287-76.431-76.431V148.431z
			 M267.242,121.273c0.132,0.403,0.158,1.228-0.574,1.76c-0.73,0.533-1.506,0.253-1.849,0.002l-8.819-6.41l-8.819,6.41
			c-0.343,0.251-1.117,0.528-1.85-0.003c-0.731-0.531-0.705-1.355-0.573-1.759l3.369-10.366l-8.819-6.406
			c-0.343-0.25-0.849-0.9-0.568-1.762c0.278-0.859,1.07-1.088,1.494-1.088l10.9,0.002l3.367-10.367
			c0.132-0.404,0.595-1.087,1.499-1.087s1.367,0.683,1.499,1.087l3.367,10.367l10.9-0.002c0.424,0,1.216,0.229,1.494,1.088
			l0.001,0.002c0.28,0.86-0.226,1.51-0.569,1.76l-8.819,6.406L267.242,121.273z M331.928,116.429
			c0.132,0.403,0.158,1.229-0.572,1.759c-0.73,0.531-1.506,0.254-1.85,0.003l-8.818-6.409l-8.819,6.409
			c-0.343,0.249-1.118,0.53-1.851-0.003c-0.731-0.531-0.705-1.355-0.573-1.759l3.369-10.366l-8.819-6.406
			c-0.343-0.25-0.85-0.901-0.57-1.761c0.28-0.86,1.071-1.089,1.496-1.089l10.901,0.002l3.367-10.369
			c0.131-0.403,0.594-1.086,1.498-1.086c0.903,0,1.366,0.683,1.497,1.086l3.367,10.369l10.901-0.002
			c0.424,0,1.217,0.229,1.496,1.089s-0.227,1.511-0.569,1.76l-8.821,6.406L331.928,116.429z M256,30
			c31.34,0,61.347,11.124,84.963,31.041c-0.278,0.331-0.552,0.666-0.817,1.01c-5.417-4.238-12.204-6.697-19.459-6.697
			c-10.331,0-19.724,4.969-25.545,12.992c-3.937,1.277-7.553,3.319-10.67,5.97c-0.955-0.419-1.928-0.802-2.927-1.125
			C275.723,65.167,266.33,60.199,256,60.199c-10.33,0-19.723,4.969-25.544,12.991c-0.999,0.324-1.972,0.706-2.927,1.125
			c-3.117-2.651-6.734-4.693-10.671-5.97c-5.821-8.023-15.214-12.992-25.545-12.992c-7.255,0-14.042,2.458-19.459,6.696
			c-0.265-0.344-0.539-0.678-0.817-1.01C194.653,41.124,224.66,30,256,30z M194.322,282.924v17.007H176.47
			c-19.46,0-37.505,6.175-52.28,16.667V161.81c0-10.523,1.252-20.903,3.686-31.002c1.088-0.23,2.169-0.51,3.234-0.857
			c3.166,1.031,6.453,1.546,9.741,1.546c2.937,0,5.869-0.433,8.718-1.255v65.991C149.569,231.948,167.252,263.608,194.322,282.924z
			 M113.849,80.884c0.279-0.86,1.071-1.09,1.496-1.09l10.901,0.002l3.367-10.369c0.131-0.403,0.594-1.085,1.498-1.085
			c0.903,0,1.366,0.682,1.497,1.085l3.367,10.369l10.901-0.002c0.424,0,1.217,0.229,1.496,1.09c0.279,0.859-0.227,1.51-0.569,1.759
			l-8.821,6.406l3.37,10.367c0.132,0.403,0.158,1.229-0.572,1.759c-0.73,0.531-1.506,0.254-1.85,0.003l-8.818-6.409l-8.819,6.409
			c-0.342,0.248-1.118,0.53-1.851-0.003c-0.731-0.531-0.705-1.355-0.573-1.759l3.37-10.367l-8.821-6.406
			C114.075,82.394,113.569,81.743,113.849,80.884z M145.092,482h-29.126v-91.565c0-21.882,11.677-41.088,29.126-51.715V482z
			 M336.908,482H175.092v-40.242c0-18.171,14.783-32.954,32.954-32.954c18.171,0,32.954,14.783,32.954,32.954h30
			c0-18.171,14.783-32.954,32.954-32.954s32.954,14.783,32.954,32.954V482z M336.91,388.146h-0.002
			c-9.592-5.918-20.879-9.342-32.954-9.342c-19.194,0-36.398,8.644-47.954,22.233c-11.556-13.589-28.76-22.233-47.954-22.233
			c-12.075,0-23.362,3.424-32.954,9.342v-58.182c0.46-0.01,0.917-0.035,1.379-0.035h17.852v11.461h30v-43.541
			c10.01,3.127,20.651,4.813,31.678,4.813c11.027,0,21.667-1.686,31.678-4.813v43.541h30v-11.461h17.852
			c0.462,0,0.919,0.025,1.379,0.035V388.146z M396.034,482h-29.126V338.719c17.449,10.627,29.126,29.833,29.126,51.715V482z
			 M397.582,82.643l-8.821,6.406l3.37,10.367c0.132,0.403,0.158,1.228-0.574,1.76c-0.73,0.531-1.507,0.251-1.85,0.002l-8.819-6.409
			l-8.818,6.409c-0.343,0.251-1.117,0.528-1.85-0.003c-0.73-0.53-0.704-1.355-0.572-1.759l3.37-10.367l-8.821-6.406
			c-0.343-0.249-0.849-0.899-0.569-1.759c0.279-0.86,1.071-1.09,1.496-1.09l10.901,0.002l3.367-10.369
			c0.13-0.404,0.593-1.085,1.497-1.085c0.904,0,1.367,0.682,1.498,1.085l3.367,10.369l10.901-0.002c0.424,0,1.217,0.229,1.496,1.09
			C398.43,81.743,397.924,82.394,397.582,82.643z"/>
	</g>
</g>
<g>
</g>
<g>
</g>
<g>
</g>
<g>
</g>
<g>
</g>
<g>
</g>
<g>
</g>
<g>
</g>
<g>
</g>
<g>
</g>
<g>
</g>
<g>
</g>
<g>
</g>
<g>
</g>
<g>
</g>
</svg>
